<svg width="84" height="31" viewBox="0 0 84 31" fill="none" xmlns="http://www.w3.org/2000/svg">
<path fill-rule="evenodd" clip-rule="evenodd" d="M9.396 24.624V19.26H11.772C14.244 19.26 16.308 18.276 17.964 16.308C19.524 14.412 20.304 12.228 20.304 9.756C20.304 6.876 19.44 4.536 17.712 2.736C15.984 0.912 13.692 0 10.836 0H1.692L0 7.308H1.692V24.624H9.396ZM10.908 12.024H9.432V7.524H11.124C11.628 7.524 12.012 7.746 12.276 8.19C12.54 8.634 12.672 9.12 12.672 9.648C12.672 10.248 12.528 10.776 12.24 11.232C11.928 11.76 11.484 12.024 10.908 12.024ZM36.548 22.428C34.676 24.156 32.348 25.02 29.564 25.02C26.828 25.02 24.548 24.144 22.724 22.392C20.9 20.64 19.988 18.396 19.988 15.66C19.988 12.948 20.936 10.716 22.832 8.964C24.656 7.236 26.924 6.372 29.636 6.372C32.372 6.372 34.676 7.236 36.548 8.964C38.42 10.692 39.356 12.912 39.356 15.624C39.356 18.408 38.42 20.676 36.548 22.428ZM29.78 18.432C29.396 18.432 29.03 18.366 28.682 18.234C28.334 18.102 28.022 17.922 27.746 17.694C27.47 17.466 27.254 17.19 27.098 16.866C26.942 16.542 26.864 16.2 26.864 15.84C26.864 15.096 27.134 14.442 27.674 13.878C28.214 13.314 28.856 13.032 29.6 13.032C30.368 13.032 31.004 13.278 31.508 13.77C32.012 14.262 32.264 14.892 32.264 15.66C32.264 17.508 31.436 18.432 29.78 18.432ZM51.388 23.472C50.14 24.432 48.508 24.912 46.492 24.912C44.524 24.912 42.184 24.432 39.472 23.472L40.948 17.676C42.772 18.78 44.104 19.332 44.944 19.332C45.688 19.332 46.06 19.032 46.06 18.432C46.06 18.24 45.496 17.94 44.368 17.532C42.976 17.052 41.92 16.524 41.2 15.948C40.072 15.036 39.508 13.872 39.508 12.456C39.508 11.52 39.664 10.674 39.976 9.918C40.288 9.162 40.732 8.52 41.308 7.992C41.884 7.464 42.574 7.062 43.378 6.786C44.182 6.51 45.064 6.372 46.024 6.372C48.28 6.372 50.5 7.008 52.684 8.28L50.992 13.572C49.648 12.588 48.568 12.096 47.752 12.096C47.128 12.096 46.816 12.348 46.816 12.852C46.816 13.116 47.392 13.464 48.544 13.896C49.912 14.424 50.98 14.976 51.748 15.552C52.9 16.464 53.476 17.604 53.476 18.972C53.476 20.94 52.78 22.44 51.388 23.472ZM61.8 24.624V13.356H63.06L64.752 6.624H61.8V2.448L54.636 4.212V6.624H53.88L52.188 13.356H54.636V24.624H61.8ZM80.232 29.628C78.744 30.492 76.572 30.924 73.716 30.924C70.788 30.924 68.1 30.432 65.652 29.448L67.056 23.76C69.144 24.6 71.088 25.02 72.888 25.02C74.5666 25.02 75.5929 24.52 75.9671 23.5199C76.007 23.413 76.0414 23.0801 76.0702 22.5211C76.0702 22.5211 74.2202 23.5199 71.7747 23.5199C69.3293 23.5199 67.932 23.16 67.02 22.536C65.988 21.864 65.472 20.832 65.472 19.44V13.716H63.78L65.472 6.624H72.528V15.408C72.528 16.896 73.308 17.64 74.868 17.64C75.396 17.64 75.816 17.58 76.128 17.46V6.624H83.04V23.976C83.04 26.64 82.104 28.524 80.232 29.628Z" fill="black"/>
</svg>
